<svg width="476" height="32" viewBox="0 0 476 32" fill="none" xmlns="http://www.w3.org/2000/svg">
<path d="M0.889999 31V1.14H7.89L20.23 21.46H16.5L28.6 1.14H35.55L35.6 31H27.83L27.74 13H29.07L20.07 28.11H16.3L7.04 13H8.66V31H0.889999Z" fill="#3EB397"/>
<path d="M37.99 31L51.18 1.12H59.5L72.73 31H63.94L53.61 5.28H56.94L46.61 31H37.99ZM45.2 25.15L47.38 19H61.97L64.15 25.19L45.2 25.15Z" fill="#3EB397"/>
<path d="M75.16 31V1.14H88.78C91.2094 1.08268 93.624 1.53224 95.87 2.46001C97.7431 3.24861 99.338 4.57881 100.45 6.28C101.543 8.03945 102.099 10.0794 102.05 12.15C102.122 14.2103 101.583 16.2458 100.5 18C99.3802 19.6752 97.7853 20.9776 95.92 21.74C93.6711 22.6559 91.2576 23.0984 88.83 23.04H79.83L83.62 19.46V31H75.16ZM83.61 20.46L79.82 16.53H88.27C89.6986 16.6434 91.1198 16.2348 92.27 15.38C93.117 14.5243 93.5921 13.369 93.5921 12.165C93.5921 10.961 93.117 9.80566 92.27 8.95C91.1251 8.08302 89.7017 7.66667 88.27 7.78H79.82L83.61 3.89999V20.46ZM93.61 31L86.19 20.12H95.19L102.65 31H93.61Z" fill="#3EB397"/>
<path d="M106.75 31V1.14H115.07V31H106.75ZM114.26 24.38L113.79 14.91L126.64 1.12H135.9L123.18 15L118.44 19.91L114.26 24.38ZM126.77 31L117.04 18.66L122.54 12.77L136.59 31H126.77Z" fill="#3EB397"/>
<path d="M147.17 24.45H162.79V31H138.85V1.14H162.24V7.71001H147.17V24.45ZM146.57 12.71H160.44V19H146.57V12.71Z" fill="#3EB397"/>
<path d="M173.85 31V7.84H164.67V1.14H191.43V7.84H182.3V31H173.85Z" fill="#3EB397"/>
<path d="M194.63 31V1.14H203.09V31H194.63Z" fill="#3EB397"/>
<path d="M209.1 31V1.14H216.1L232.5 21H229.22V1.14H237.5V31H230.5L214.02 11.11H217.31V31H209.1Z" fill="#3EB397"/>
<path d="M258.4 31.62C256.16 31.6445 253.933 31.2616 251.83 30.49C249.902 29.7723 248.132 28.6853 246.62 27.29C245.139 25.9052 243.964 24.2259 243.17 22.36C241.517 18.34 241.517 13.83 243.17 9.81C243.965 7.93965 245.148 6.25929 246.64 4.88001C248.175 3.47709 249.968 2.38675 251.92 1.67C256.539 0.0720043 261.577 0.171266 266.13 1.95C268.271 2.83242 270.163 4.22647 271.64 6.01L266.26 10.87C265.335 9.81824 264.21 8.96154 262.95 8.35001C261.708 7.79716 260.36 7.52078 259 7.54C257.806 7.52474 256.62 7.7281 255.5 8.14C254.489 8.51542 253.571 9.10564 252.81 9.87C252.054 10.6456 251.465 11.5679 251.08 12.58C250.656 13.6977 250.446 14.8848 250.46 16.08C250.449 17.2619 250.659 18.4355 251.08 19.54C251.465 20.5521 252.054 21.4745 252.81 22.25C253.573 23.017 254.49 23.6134 255.5 24C256.597 24.4227 257.764 24.6331 258.94 24.62C260.189 24.6182 261.429 24.4086 262.61 24C263.93 23.5127 265.155 22.7987 266.23 21.89L270.97 27.82C269.154 29.0793 267.144 30.0319 265.02 30.64C262.871 31.2792 260.642 31.6092 258.4 31.62ZM263.4 26.75V15.44H270.91V27.82L263.4 26.75Z" fill="#3EB397"/>
<path d="M285.16 31L298.35 1.12H306.68L319.91 31H311.12L300.79 5.25999H304.12L293.79 31H285.16ZM292.38 25.15L294.55 18.96H309.15L311.33 25.15H292.38Z" fill="#3EB397"/>
<path d="M336.81 31.62C334.57 31.6445 332.343 31.2616 330.24 30.49C328.312 29.7723 326.542 28.6853 325.03 27.29C323.549 25.9029 322.371 24.2244 321.57 22.36C319.93 18.3374 319.93 13.8326 321.57 9.80999C322.372 7.94123 323.558 6.26169 325.05 4.88C326.582 3.47819 328.372 2.38791 330.32 1.66999C334.937 0.0979836 339.961 0.214922 344.5 2C346.64 2.87987 348.529 4.27448 350 6.05999L344.63 10.92C343.705 9.86824 342.58 9.01152 341.32 8.39999C340.078 7.84714 338.73 7.57077 337.37 7.58999C336.176 7.57474 334.99 7.7781 333.87 8.19C332.859 8.56541 331.941 9.15564 331.18 9.92C330.424 10.6955 329.835 11.6179 329.45 12.63C329.026 13.7477 328.816 14.9348 328.83 16.13C328.819 17.3119 329.029 18.4855 329.45 19.59C329.835 20.6021 330.424 21.5244 331.18 22.3C331.937 23.0646 332.847 23.6609 333.85 24.05C334.944 24.4719 336.108 24.6823 337.28 24.67C338.533 24.6691 339.776 24.4596 340.96 24.05C342.28 23.5627 343.505 22.8487 344.58 21.94L349.32 27.87C347.504 29.1292 345.494 30.0819 343.37 30.69C341.238 31.3067 339.029 31.6197 336.81 31.62ZM341.81 26.75V15.44H349.32V27.82L341.81 26.75Z" fill="#3EB397"/>
<path d="M363.1 24.45H378.73V31H354.73V1.14H378.12V7.71001H363.1V24.45ZM362.5 12.71H376.37V19H362.5V12.71Z" fill="#3EB397"/>
<path d="M383.5 31V1.14H390.5L406.85 21H403.57V1.14H411.85V31H404.85L388.38 11.11H391.66V31H383.5Z" fill="#3EB397"/>
<path d="M432.72 31.62C430.493 31.6419 428.28 31.259 426.19 30.49C424.262 29.7723 422.492 28.6853 420.98 27.29C419.499 25.9052 418.324 24.2259 417.53 22.36C415.877 18.34 415.877 13.83 417.53 9.81C418.321 7.94278 419.497 6.26304 420.98 4.88001C422.492 3.48152 424.261 2.39117 426.19 1.67C430.718 0.0663391 435.675 0.173037 440.13 1.97C442.265 2.89908 444.135 4.34608 445.57 6.17999L440.19 11C439.303 9.93279 438.216 9.04951 436.99 8.4C435.801 7.79544 434.484 7.48671 433.15 7.5C431.999 7.48695 430.856 7.69049 429.78 8.10001C428.788 8.47883 427.891 9.06918 427.15 9.83C426.41 10.6145 425.83 11.5347 425.44 12.54C424.627 14.8025 424.627 17.2775 425.44 19.54C425.83 20.5453 426.41 21.4655 427.15 22.25C427.888 23.0141 428.786 23.605 429.78 23.98C430.856 24.3895 431.999 24.5931 433.15 24.58C434.484 24.5933 435.801 24.2845 436.99 23.68C438.226 23.0244 439.315 22.1225 440.19 21.03L445.57 25.9C444.133 27.737 442.264 29.1902 440.13 30.13C437.791 31.1395 435.267 31.647 432.72 31.62Z" fill="#3EB397"/>
<path d="M456.03 31V18.39L458.03 23.46L444.63 1.14H453.63L463.23 17.32H458.11L467.8 1.14H476L462.72 23.46L464.56 18.39V31H456.03Z" fill="#3EB397"/>
</svg>
