<svg width="223" height="109" viewBox="0 0 223 109" fill="none" xmlns="http://www.w3.org/2000/svg">
<path d="M59.64 80.51C52.3533 80.51 46.4933 78.1767 42.06 73.51C37.6267 68.8433 35.41 62.5633 35.41 54.67C35.41 46.8033 37.6267 40.5267 42.06 35.84C46.4933 31.1533 52.3533 28.82 59.64 28.84C68.3067 28.84 75.84 32.88 82.24 40.96L104.24 21.31C99.1382 14.6262 92.4307 9.33929 84.74 5.94C76.256 2.2788 67.0889 0.468564 57.85 0.630001C47.5899 0.471844 37.4474 2.83065 28.31 7.5C19.7816 11.8494 12.6419 18.5006 7.70001 26.7C2.66313 35.1602 0.080087 44.8552 0.240001 54.7C0.0821974 64.5445 2.66509 74.239 7.70001 82.7C12.6448 90.897 19.7837 97.5475 28.31 101.9C37.4474 106.569 47.5899 108.928 57.85 108.77C67.0902 108.935 76.2587 107.121 84.74 103.45C92.4323 100.058 99.1407 94.7739 104.24 88.09L82.24 68.44C75.84 76.4933 68.3067 80.5167 59.64 80.51Z" fill="white"/>
<path d="M186.72 58.56L164.32 82.6L182.24 106.37H222.57L186.72 58.56Z" fill="white"/>
<path d="M220.51 2.96H182.54L148.56 40.48V2.96H114.29V106.37H148.56V80.81L220.51 2.96Z" fill="white"/>
</svg>
