<svg width="197" height="109" viewBox="0 0 197 109" fill="none" xmlns="http://www.w3.org/2000/svg">
<path d="M28.077 101.27C19.5507 96.9174 12.4118 90.2669 7.467 82.0699C2.43061 73.6095 -0.152387 63.9146 0.00699944 54.0699C-0.152915 44.2252 2.43012 34.5301 7.467 26.0699C12.4089 17.8706 19.5486 11.2193 28.077 6.86992C37.2153 2.20403 47.3577 -0.151328 57.617 0.00992196C66.8559 -0.151516 76.023 1.65873 84.507 5.31992C92.1977 8.71921 98.9052 14.0061 104.007 20.6899L82.007 40.3299C75.5937 32.2633 68.0537 28.2266 59.387 28.2199C52.107 28.2199 46.2503 30.5533 41.817 35.2199C37.3837 39.8866 35.167 46.1699 35.167 54.0699C35.167 61.9499 37.3837 68.2299 41.817 72.9099C46.2503 77.5899 52.107 79.9233 59.387 79.9099C68.0537 79.9099 75.5903 75.8733 81.997 67.7999L103.997 87.4499C98.8977 94.1338 92.1893 99.4179 84.497 102.81C76.0157 106.481 66.8472 108.295 57.607 108.13C47.3511 108.29 37.2123 105.934 28.077 101.27Z" fill="white"/>
<path d="M114.5 2H149.4V78.33H196.08V105.33H114.5V2Z" fill="white"/>
</svg>
