<svg width="476" height="120" viewBox="0 0 476 120" fill="none" xmlns="http://www.w3.org/2000/svg">
<g id="CLICK">
<g id="ONELOGO">
<path id="Vector" d="M206.85 89.87V37.46L177.88 34.14L243.94 0L206.85 89.87Z" fill="#3EB397"/>
<path id="Vector_2" d="M243.94 25.19V118.04H206.85L243.94 25.19Z" fill="white"/>
</g>
<path id="Vector_3" d="M28.077 112.27C19.5507 107.917 12.4118 101.267 7.467 93.0699C2.43061 84.6095 -0.152387 74.9146 0.00699944 65.0699C-0.152915 55.2252 2.43012 45.5301 7.467 37.0699C12.4089 28.8706 19.5486 22.2193 28.077 17.8699C37.2153 13.204 47.3577 10.8487 57.617 11.0099C66.8559 10.8485 76.023 12.6587 84.507 16.3199C92.1977 19.7192 98.9052 25.0061 104.007 31.6899L82.007 51.3299C75.5937 43.2633 68.0537 39.2266 59.387 39.2199C52.107 39.2199 46.2503 41.5533 41.817 46.2199C37.3837 50.8866 35.167 57.1699 35.167 65.0699C35.167 72.9499 37.3837 79.2299 41.817 83.9099C46.2503 88.5899 52.107 90.9233 59.387 90.9099C68.0537 90.9099 75.5903 86.8733 81.997 78.7999L103.997 98.4499C98.8977 105.134 92.1893 110.418 84.497 113.81C76.0157 117.481 66.8472 119.295 57.607 119.13C47.3511 119.29 37.2123 116.934 28.077 112.27Z" fill="white"/>
<path id="Vector_4" d="M114.5 13H149.4V89.33H196.08V116.33H114.5V13Z" fill="white"/>
<path id="Vector_5" d="M312.64 90.51C305.353 90.51 299.493 88.1767 295.06 83.51C290.627 78.8433 288.41 72.5633 288.41 64.67C288.41 56.8033 290.627 50.5267 295.06 45.84C299.493 41.1533 305.353 38.82 312.64 38.84C321.307 38.84 328.84 42.88 335.24 50.96L357.24 31.31C352.138 24.6262 345.431 19.3393 337.74 15.94C329.256 12.2788 320.089 10.4686 310.85 10.63C300.59 10.4718 290.447 12.8306 281.31 17.5C272.782 21.8494 265.642 28.5006 260.7 36.7C255.663 45.1602 253.08 54.8552 253.24 64.7C253.082 74.5445 255.665 84.239 260.7 92.7C265.645 100.897 272.784 107.548 281.31 111.9C290.447 116.569 300.59 118.928 310.85 118.77C320.09 118.935 329.259 117.121 337.74 113.45C345.432 110.058 352.141 104.774 357.24 98.09L335.24 78.44C328.84 86.4933 321.307 90.5167 312.64 90.51Z" fill="white"/>
<g id="K">
<path id="Vector_6" d="M439.72 68.56L417.32 92.6L435.24 116.37H475.57L439.72 68.56Z" fill="white"/>
<path id="Vector_7" d="M473.51 12.96H435.54L401.56 50.48V12.96H367.29V116.37H401.56V90.81L473.51 12.96Z" fill="white"/>
</g>
</g>
</svg>
