<svg width="277" height="228" viewBox="0 0 277 228" fill="none" xmlns="http://www.w3.org/2000/svg">
<circle cx="2" cy="2" r="2" fill="white"/>
<circle cx="30" cy="2" r="2" fill="white"/>
<circle cx="58" cy="2" r="2" fill="white"/>
<circle cx="86" cy="2" r="2" fill="white"/>
<circle cx="114" cy="2" r="2" fill="white"/>
<circle cx="142" cy="2" r="2" fill="white"/>
<circle cx="170" cy="2" r="2" fill="white"/>
<circle cx="198" cy="2" r="2" fill="white"/>
<circle cx="226" cy="2" r="2" fill="white"/>
<circle cx="254" cy="2" r="2" fill="white"/>
<circle cx="2" cy="30" r="2" fill="white"/>
<circle cx="30" cy="30" r="2" fill="white"/>
<circle cx="58" cy="30" r="2" fill="white"/>
<circle cx="86" cy="30" r="2" fill="white"/>
<circle cx="114" cy="30" r="2" fill="white"/>
<circle cx="142" cy="30" r="2" fill="white"/>
<circle cx="170" cy="30" r="2" fill="white"/>
<circle cx="198" cy="30" r="2" fill="white"/>
<circle cx="226" cy="30" r="2" fill="white"/>
<circle cx="254" cy="30" r="2" fill="white"/>
<circle cx="2" cy="58" r="2" fill="white"/>
<circle cx="30" cy="58" r="2" fill="white"/>
<circle cx="58" cy="58" r="2" fill="white"/>
<circle cx="86" cy="58" r="2" fill="white"/>
<circle cx="114" cy="58" r="2" fill="white"/>
<circle cx="142" cy="58" r="2" fill="white"/>
<circle cx="170" cy="58" r="2" fill="white"/>
<circle cx="198" cy="58" r="2" fill="white"/>
<circle cx="226" cy="58" r="2" fill="white"/>
<circle cx="254" cy="58" r="2" fill="white"/>
<circle cx="2" cy="86" r="2" fill="white"/>
<circle cx="30" cy="86" r="2" fill="white"/>
<circle cx="58" cy="86" r="2" fill="white"/>
<circle cx="86" cy="86" r="2" fill="white"/>
<circle cx="114" cy="86" r="2" fill="white"/>
<circle cx="142" cy="86" r="2" fill="white"/>
<circle cx="170" cy="86" r="2" fill="white"/>
<circle cx="198" cy="86" r="2" fill="white"/>
<circle cx="226" cy="86" r="2" fill="white"/>
<circle cx="254" cy="86" r="2" fill="white"/>
<circle cx="2" cy="114" r="2" fill="white"/>
<circle cx="30" cy="114" r="2" fill="white"/>
<circle cx="58" cy="114" r="2" fill="white"/>
<circle cx="86" cy="114" r="2" fill="white"/>
<circle cx="114" cy="114" r="2" fill="white"/>
<circle cx="142" cy="114" r="2" fill="white"/>
<circle cx="170" cy="114" r="2" fill="white"/>
<circle cx="198" cy="114" r="2" fill="white"/>
<circle cx="226" cy="114" r="2" fill="white"/>
<circle cx="254" cy="114" r="2" fill="white"/>
<circle cx="2" cy="142" r="2" fill="white"/>
<circle cx="30" cy="142" r="2" fill="white"/>
<circle cx="58" cy="142" r="2" fill="white"/>
<circle cx="86" cy="142" r="2" fill="white"/>
<circle cx="114" cy="142" r="2" fill="white"/>
<circle cx="142" cy="142" r="2" fill="white"/>
<circle cx="170" cy="142" r="2" fill="white"/>
<circle cx="198" cy="142" r="2" fill="white"/>
<circle cx="226" cy="142" r="2" fill="white"/>
<circle cx="254" cy="142" r="2" fill="white"/>
<circle cx="2" cy="170" r="2" fill="white"/>
<circle cx="30" cy="170" r="2" fill="white"/>
<circle cx="58" cy="170" r="2" fill="white"/>
<circle cx="86" cy="170" r="2" fill="white"/>
<circle cx="114" cy="170" r="2" fill="white"/>
<circle cx="142" cy="170" r="2" fill="white"/>
<circle cx="170" cy="170" r="2" fill="white"/>
<circle cx="198" cy="170" r="2" fill="white"/>
<circle cx="226" cy="170" r="2" fill="white"/>
<circle cx="254" cy="170" r="2" fill="white"/>
<circle cx="2" cy="198" r="2" fill="white"/>
<circle cx="30" cy="198" r="2" fill="white"/>
<circle cx="58" cy="198" r="2" fill="white"/>
<circle cx="86" cy="198" r="2" fill="white"/>
<circle cx="114" cy="198" r="2" fill="white"/>
<circle cx="142" cy="198" r="2" fill="white"/>
<circle cx="170" cy="198" r="2" fill="white"/>
<circle cx="198" cy="198" r="2" fill="white"/>
<circle cx="226" cy="198" r="2" fill="white"/>
<circle cx="254" cy="198" r="2" fill="white"/>
<circle cx="2" cy="226" r="2" fill="white"/>
<circle cx="30" cy="226" r="2" fill="white"/>
<circle cx="58" cy="226" r="2" fill="white"/>
<circle cx="86" cy="226" r="2" fill="white"/>
<circle cx="114" cy="226" r="2" fill="white"/>
<circle cx="142" cy="226" r="2" fill="white"/>
<circle cx="170" cy="226" r="2" fill="white"/>
<circle cx="198" cy="226" r="2" fill="white"/>
<circle cx="226" cy="226" r="2" fill="white"/>
<circle cx="254" cy="226" r="2" fill="white"/>
</svg>
