<svg width="78" height="77" viewBox="0 0 78 77" fill="none" xmlns="http://www.w3.org/2000/svg">
<g clip-path="url(#clip0_34_6007)">
<path d="M0.399902 38.4C0.399902 57.408 14.2239 73.152 32.4639 76.416L32.6908 76.2303C32.6792 76.2282 32.6675 76.2261 32.6559 76.224V49.152H23.0559V38.4H32.6559V29.952C32.6559 20.352 38.7999 14.976 47.6319 14.976C50.3199 14.976 53.3919 15.36 56.0799 15.744V25.536H51.0879C46.4799 25.536 45.3279 27.84 45.3279 30.912V38.4H55.5039L53.7759 49.152H45.3279V76.224C45.211 76.2453 45.094 76.2659 44.977 76.286L45.1359 76.416C63.3759 73.152 77.1999 57.408 77.1999 38.4C77.1999 17.28 59.9199 0 38.7999 0C17.6799 0 0.399902 17.28 0.399902 38.4Z" fill="white"/>
</g>
<defs>
<clipPath id="clip0_34_6007">
<rect width="76.8" height="76.8" fill="white" transform="translate(0.399902)"/>
</clipPath>
</defs>
</svg>
