<svg width="77" height="77" viewBox="0 0 77 77" fill="none" xmlns="http://www.w3.org/2000/svg">
<g clip-path="url(#clip0_34_6009)">
<path d="M38.4036 0C27.9747 0 26.6659 0.0456012 22.5698 0.232003C18.4818 0.419205 15.6914 1.06641 13.2497 2.01602C10.7241 2.99683 8.58169 4.30885 6.44727 6.44407C4.31124 8.57849 2.99923 10.7209 2.01522 13.2457C1.06321 15.6882 0.415204 18.4794 0.231202 22.5658C0.0480001 26.6619 0 27.9715 0 38.4004C0 48.8293 0.0464012 50.1341 0.232003 54.2302C0.420005 58.3182 1.06721 61.1087 2.01602 63.5503C2.99763 66.0759 4.30964 68.2183 6.44487 70.3528C8.57849 72.4888 10.7209 73.804 13.2449 74.7848C15.6882 75.7344 18.4794 76.3816 22.5666 76.5688C26.6627 76.7552 27.9707 76.8008 38.3988 76.8008C48.8285 76.8008 50.1333 76.7552 54.2294 76.5688C58.3174 76.3816 61.111 75.7344 63.5543 74.7848C66.0791 73.804 68.2183 72.4888 70.3519 70.3528C72.488 68.2183 73.8 66.0759 74.784 63.5511C75.728 61.1087 76.376 58.3174 76.568 54.231C76.752 50.1349 76.8 48.8293 76.8 38.4004C76.8 27.9715 76.752 26.6627 76.568 22.5666C76.376 18.4786 75.728 15.6882 74.784 13.2465C73.8 10.7209 72.488 8.57849 70.3519 6.44407C68.2159 4.30805 66.0799 2.99603 63.5519 2.01602C61.1038 1.06641 58.3118 0.419205 54.2238 0.232003C50.1277 0.0456012 48.8237 0 38.3916 0H38.4036ZM34.9588 6.92007C35.9812 6.91848 37.122 6.92007 38.4036 6.92007C48.6565 6.92007 49.8717 6.95688 53.9206 7.14088C57.6646 7.31208 59.6966 7.93769 61.0502 8.46329C62.8423 9.1593 64.1199 9.99131 65.4631 11.3353C66.8071 12.6793 67.6391 13.9594 68.3367 15.7514C68.8623 17.1034 69.4887 19.1354 69.6591 22.8794C69.8431 26.9275 69.8831 28.1435 69.8831 38.3916C69.8831 48.6397 69.8431 49.8557 69.6591 53.9038C69.4879 57.6478 68.8623 59.6799 68.3367 61.0319C67.6407 62.8239 66.8071 64.0999 65.4631 65.4431C64.1191 66.7871 62.8431 67.6191 61.0502 68.3151C59.6982 68.8431 57.6646 69.4672 53.9206 69.6384C49.8725 69.8224 48.6565 69.8624 38.4036 69.8624C28.1499 69.8624 26.9347 69.8224 22.8866 69.6384C19.1426 69.4656 17.1106 68.84 15.7562 68.3143C13.9641 67.6183 12.6841 66.7863 11.3401 65.4423C9.9961 64.0983 9.1641 62.8215 8.46649 61.0287C7.94088 59.6767 7.31448 57.6446 7.14407 53.9006C6.96007 49.8525 6.92327 48.6365 6.92327 38.382C6.92327 28.1275 6.96007 26.9179 7.14407 22.8699C7.31528 19.1258 7.94088 17.0938 8.46649 15.7402C9.1625 13.9482 9.9961 12.6681 11.3401 11.3241C12.6841 9.98011 13.9641 9.1481 15.7562 8.45049C17.1098 7.92249 19.1426 7.29848 22.8866 7.12648C26.4291 6.96648 27.8019 6.91848 34.9588 6.91048V6.92007ZM58.9014 13.2961C56.3574 13.2961 54.2934 15.3578 54.2934 17.9026C54.2934 20.4466 56.3574 22.5106 58.9014 22.5106C61.4454 22.5106 63.5095 20.4466 63.5095 17.9026C63.5095 15.3586 61.4454 13.2945 58.9014 13.2945V13.2961ZM38.4036 18.6802C27.5131 18.6802 18.6834 27.5099 18.6834 38.4004C18.6834 49.2909 27.5131 58.1166 38.4036 58.1166C49.2941 58.1166 58.1206 49.2909 58.1206 38.4004C58.1206 27.5099 49.2941 18.6802 38.4036 18.6802ZM38.4036 25.6003C45.4725 25.6003 51.2037 31.3307 51.2037 38.4004C51.2037 45.4693 45.4725 51.2006 38.4036 51.2006C31.3339 51.2006 25.6035 45.4693 25.6035 38.4004C25.6035 31.3307 31.3339 25.6003 38.4036 25.6003Z" fill="white"/>
</g>
<defs>
<clipPath id="clip0_34_6009">
<rect width="76.8023" height="76.8" fill="white"/>
</clipPath>
</defs>
</svg>
