<svg width="78" height="79" viewBox="0 0 78 79" fill="none" xmlns="http://www.w3.org/2000/svg">
<path d="M71.5809 1.60156C74.4952 1.60156 77.0666 4.17299 77.0666 7.25871V72.9159C77.0666 76.0016 74.4952 78.4016 71.5809 78.4016H5.58089C2.6666 78.4016 0.266602 76.0016 0.266602 72.9159V7.25871C0.266602 4.17299 2.6666 1.60156 5.58089 1.60156H71.5809ZM23.4095 67.4301V30.9158H12.0952V67.4301H23.4095ZM17.7523 25.773C21.3523 25.773 24.2666 22.8587 24.2666 19.2587C24.2666 15.6587 21.3523 12.573 17.7523 12.573C13.9809 12.573 11.0666 15.6587 11.0666 19.2587C11.0666 22.8587 13.9809 25.773 17.7523 25.773ZM66.0952 67.4301V47.373C66.0952 37.6016 63.8666 29.8873 52.3809 29.8873C46.8952 29.8873 43.1237 32.973 41.5809 35.8873H41.4095V30.9158H30.6095V67.4301H41.9237V49.4301C41.9237 44.6301 42.7809 40.0016 48.7809 40.0016C54.6095 40.0016 54.6095 45.4873 54.6095 49.6016V67.4301H66.0952Z" fill="white"/>
</svg>
