<svg width="217" height="80" viewBox="0 0 217 80" fill="none" xmlns="http://www.w3.org/2000/svg">
<g clip-path="url(#clip0_8_1024)">
<path d="M92.1875 40.1497V16.7354L79.2451 15.2521L108.758 0L92.1875 40.1497Z" fill="#3EB397"/>
<path d="M108.758 11.2537V52.7346H92.1875L108.758 11.2537Z" fill="white"/>
<path d="M12.5405 49.9738C8.73141 48.0293 5.54208 45.0582 3.33297 41.3962C1.08295 37.6165 -0.0710089 33.2852 0.00019733 28.8871C-0.0712448 24.4889 1.08273 20.1576 3.33297 16.378C5.54077 12.7149 8.73045 9.74347 12.5405 7.80036C16.6231 5.71586 21.1543 4.6636 25.7376 4.73563C29.8651 4.66351 33.9606 5.47224 37.7508 7.10789C41.1867 8.62653 44.1832 10.9885 46.4625 13.9745L36.6339 22.7487C33.7688 19.1449 30.4002 17.3415 26.5284 17.3385C23.276 17.3385 20.6595 18.3809 18.6789 20.4658C16.6983 22.5506 15.708 25.3577 15.708 28.8871C15.708 32.4075 16.6983 35.2131 18.6789 37.3039C20.6595 39.3947 23.276 40.4371 26.5284 40.4312C30.4002 40.4312 33.7673 38.6278 36.6295 35.021L46.458 43.7997C44.1799 46.7857 41.1829 49.1464 37.7463 50.6618C33.9573 52.3018 29.8612 53.1121 25.7332 53.0385C21.1513 53.1098 16.6218 52.0576 12.5405 49.9738Z" fill="white"/>
<path d="M50.9297 5.80774H66.5214V39.9084H87.3758V51.9707H50.9297V5.80774Z" fill="white"/>
<path d="M139.449 40.4355C136.194 40.4355 133.576 39.3931 131.596 37.3083C129.615 35.2234 128.625 32.4178 128.625 28.8915C128.625 25.377 129.615 22.5729 131.596 20.4791C133.576 18.3853 136.194 17.3429 139.449 17.3518C143.321 17.3518 146.687 19.1567 149.546 22.7665L159.375 13.9878C157.095 11.0018 154.099 8.63984 150.663 7.1212C146.873 5.48555 142.777 4.67682 138.65 4.74894C134.066 4.67828 129.535 5.73208 125.453 7.81813C121.643 9.76124 118.453 12.7327 116.245 16.3958C113.995 20.1754 112.841 24.5067 112.912 28.9049C112.842 33.3029 113.996 37.6339 116.245 41.4139C118.454 45.0759 121.644 48.0471 125.453 49.9916C129.535 52.0776 134.066 53.1314 138.65 53.0608C142.778 53.1344 146.874 52.324 150.663 50.684C154.099 49.1687 157.096 46.808 159.375 43.8219L149.546 35.0432C146.687 38.6411 143.321 40.4385 139.449 40.4355Z" fill="white"/>
<path d="M196.223 30.6294L186.215 41.3693L194.221 51.9886H212.239L196.223 30.6294Z" fill="white"/>
<path d="M211.318 5.78992H194.355L179.174 22.5521V5.78992H163.864V51.9886H179.174V40.5696L211.318 5.78992Z" fill="white"/>
<path d="M4.19482 75.0544V61.7144H7.32209L12.835 70.7924H11.1686L16.5743 61.7144H19.6793L19.7016 75.0544H16.2303L16.1901 67.0128H16.7843L12.7635 73.7633H11.0793L6.94235 67.0128H7.66609V75.0544H4.19482Z" fill="#3EB397"/>
<path d="M20.7695 75.0544L26.6622 61.7054H30.3792L36.2897 75.0544H32.3628L27.7478 63.5639H29.2355L24.6205 75.0544H20.7695ZM23.9906 72.4409L24.9645 69.6934H31.4827L32.4566 72.4588L23.9906 72.4409Z" fill="#3EB397"/>
<path d="M37.3755 75.0545V61.7145H43.4603C44.5456 61.6888 45.6243 61.8897 46.6277 62.3042C47.4646 62.6565 48.1771 63.2508 48.6739 64.0108C49.1621 64.7968 49.4105 65.7081 49.3887 66.6332C49.4209 67.5536 49.18 68.463 48.6962 69.2467C48.1959 69.9951 47.4834 70.577 46.6501 70.9176C45.6454 71.3267 44.5671 71.5244 43.4826 71.4983H39.4618L41.155 69.899V75.0545H37.3755ZM41.1505 70.3457L39.4574 68.59H43.2324C43.8706 68.6407 44.5056 68.4581 45.0194 68.0762C45.3978 67.6939 45.6101 67.1778 45.6101 66.6399C45.6101 66.102 45.3978 65.5859 45.0194 65.2036C44.5079 64.8163 43.872 64.6303 43.2324 64.6809H39.4574L41.1505 62.9475V70.3457ZM45.6181 75.0545L42.3032 70.1938H46.3239L49.6567 75.0545H45.6181Z" fill="#3EB397"/>
<path d="M51.4883 75.0544V61.7144H55.2053V75.0544H51.4883ZM54.8434 72.0969L54.6334 67.8662L60.3742 61.7054H64.5111L58.8284 67.9064L56.7108 70.0999L54.8434 72.0969ZM60.4323 75.0544L56.0854 69.5415L58.5425 66.9101L64.8194 75.0544H60.4323Z" fill="#3EB397"/>
<path d="M69.5461 72.1282H76.5244V75.0544H65.8291V61.7144H76.2787V64.6495H69.5461V72.1282ZM69.278 66.8833H75.4745V69.6934H69.278V66.8833Z" fill="#3EB397"/>
<path d="M81.4655 75.0544V64.7076H77.3643V61.7144H89.3194V64.7076H85.2405V75.0544H81.4655Z" fill="#3EB397"/>
<path d="M90.749 75.0544V61.7144H94.5285V75.0544H90.749Z" fill="#3EB397"/>
<path d="M97.2134 75.0544V61.7144H100.341L107.667 70.5869H106.202V61.7144H109.901V75.0544H106.774L99.4114 66.1685H100.881V75.0544H97.2134Z" fill="#3EB397"/>
<path d="M119.238 75.3315C118.237 75.3424 117.243 75.1714 116.303 74.8267C115.442 74.506 114.651 74.0204 113.976 73.397C113.314 72.7784 112.789 72.0282 112.434 71.1946C111.696 69.3986 111.696 67.3838 112.434 65.5878C112.789 64.7522 113.318 64.0015 113.984 63.3853C114.67 62.7586 115.471 62.2715 116.343 61.9512C118.407 61.2373 120.658 61.2817 122.692 62.0763C123.648 62.4706 124.493 63.0933 125.153 63.8901L122.75 66.0614C122.337 65.5915 121.834 65.2088 121.271 64.9356C120.716 64.6886 120.114 64.5651 119.506 64.5737C118.973 64.5669 118.443 64.6577 117.943 64.8417C117.491 65.0094 117.081 65.2731 116.741 65.6146C116.403 65.9611 116.14 66.3731 115.968 66.8253C115.779 67.3246 115.685 67.855 115.691 68.3889C115.686 68.917 115.78 69.4413 115.968 69.9347C116.14 70.3869 116.403 70.7989 116.741 71.1454C117.082 71.4881 117.491 71.7545 117.943 71.9272C118.433 72.1161 118.954 72.2101 119.48 72.2042C120.038 72.2034 120.592 72.1098 121.119 71.9272C121.709 71.7095 122.256 71.3905 122.736 70.9846L124.854 73.6338C124.043 74.1964 123.145 74.622 122.196 74.8937C121.236 75.1792 120.24 75.3266 119.238 75.3315ZM121.472 73.1558V68.103H124.827V73.6338L121.472 73.1558Z" fill="#3EB397"/>
<path d="M131.193 75.0544L137.086 61.7054H140.807L146.718 75.0544H142.791L138.176 63.555H139.664L135.049 75.0544H131.193ZM134.419 72.4409L135.388 69.6755H141.911L142.885 72.4409H134.419Z" fill="#3EB397"/>
<path d="M154.268 75.3314C153.267 75.3423 152.273 75.1713 151.333 74.8266C150.472 74.5059 149.681 74.0203 149.005 73.397C148.344 72.7773 147.818 72.0274 147.46 71.1945C146.727 69.3974 146.727 67.3848 147.46 65.5877C147.818 64.7529 148.348 64.0025 149.014 63.3852C149.699 62.759 150.498 62.2719 151.369 61.9512C153.431 61.2489 155.676 61.3011 157.704 62.0986C158.66 62.4917 159.504 63.1147 160.161 63.9124L157.762 66.0836C157.349 65.6137 156.846 65.231 156.283 64.9578C155.728 64.7108 155.126 64.5873 154.518 64.5959C153.985 64.5891 153.455 64.68 152.955 64.864C152.503 65.0317 152.093 65.2954 151.753 65.6369C151.415 65.9833 151.152 66.3954 150.98 66.8476C150.791 67.3469 150.697 67.8773 150.703 68.4112C150.698 68.9392 150.792 69.4635 150.98 69.957C151.152 70.4091 151.415 70.8212 151.753 71.1677C152.091 71.5093 152.498 71.7757 152.946 71.9495C153.434 72.138 153.954 72.232 154.478 72.2265C155.038 72.2261 155.593 72.1325 156.122 71.9495C156.712 71.7318 157.259 71.4128 157.739 71.0068L159.857 73.6561C159.046 74.2186 158.148 74.6443 157.199 74.9159C156.246 75.1914 155.26 75.3313 154.268 75.3314ZM156.502 73.1557V68.1029H159.857V73.6337L156.502 73.1557Z" fill="#3EB397"/>
<path d="M166.013 72.1282H172.996V75.0544H162.274V61.7144H172.723V64.6495H166.013V72.1282ZM165.745 66.8833H171.942V69.6934H165.745V66.8833Z" fill="#3EB397"/>
<path d="M175.127 75.0544V61.7144H178.254L185.559 70.5869H184.093V61.7144H187.792V75.0544H184.665L177.307 66.1685H178.772V75.0544H175.127Z" fill="#3EB397"/>
<path d="M197.116 75.3314C196.121 75.3412 195.133 75.1701 194.199 74.8266C193.338 74.5059 192.547 74.0203 191.872 73.3969C191.21 72.7783 190.685 72.0281 190.33 71.1945C189.592 69.3985 189.592 67.3837 190.33 65.5877C190.684 64.7535 191.209 64.0031 191.872 63.3852C192.547 62.7605 193.337 62.2733 194.199 61.9511C196.222 61.2347 198.437 61.2824 200.427 62.0852C201.381 62.5002 202.216 63.1467 202.857 63.966L200.454 66.1194C200.058 65.6426 199.572 65.248 199.024 64.9578C198.493 64.6877 197.904 64.5498 197.309 64.5557C196.794 64.5499 196.284 64.6408 195.803 64.8238C195.36 64.993 194.959 65.2568 194.628 65.5967C194.298 65.9471 194.038 66.3582 193.864 66.8073C193.501 67.8181 193.501 68.9238 193.864 69.9346C194.038 70.3837 194.298 70.7949 194.628 71.1453C194.958 71.4867 195.359 71.7507 195.803 71.9182C196.284 72.1012 196.794 72.1921 197.309 72.1863C197.904 72.1922 198.493 72.0543 199.024 71.7842C199.576 71.4913 200.063 71.0884 200.454 70.6003L202.857 72.776C202.215 73.5967 201.38 74.2459 200.427 74.6657C199.382 75.1167 198.254 75.3435 197.116 75.3314Z" fill="#3EB397"/>
<path d="M207.53 75.0544V69.4208L208.423 71.6859L202.437 61.7144H206.458L210.747 68.9428H208.459L212.788 61.7144H216.452L210.519 71.6859L211.341 69.4208V75.0544H207.53Z" fill="#3EB397"/>
</g>
<defs>
<clipPath id="clip0_8_1024">
<rect width="216.416" height="80" fill="white"/>
</clipPath>
</defs>
</svg>
