<svg width="78" height="78" viewBox="0 0 78 78" fill="none" xmlns="http://www.w3.org/2000/svg">
<g clip-path="url(#clip0_34_6012)">
<path d="M64.8186 12.9158C72.0186 20.1159 76.4758 29.5444 76.4758 39.8301C76.4758 60.7444 58.9901 77.8873 37.9044 77.8873C31.5615 77.8873 25.3901 76.173 19.7329 73.2587L-0.324219 78.4016L4.99007 58.6873C1.73292 53.0301 -0.15279 46.5159 -0.15279 39.6587C-0.15279 18.7444 16.9901 1.60156 37.9044 1.60156C48.1901 1.60156 57.7901 5.71585 64.8186 12.9158ZM37.9044 71.373C55.3901 71.373 69.9615 57.1444 69.9615 39.8301C69.9615 31.2587 66.3615 23.373 60.3615 17.373C54.3615 11.373 46.4758 8.11585 38.0758 8.11585C20.5901 8.11585 6.3615 22.3444 6.3615 39.6587C6.3615 45.6587 8.07578 51.4873 11.1615 56.6301L12.0186 57.8301L8.7615 69.4873L20.7615 66.2301L21.7901 66.9159C26.7615 69.8301 32.2472 71.373 37.9044 71.373ZM55.3901 47.7159C56.2472 48.2301 56.9329 48.4016 57.1044 48.9159C57.4472 49.2587 57.4472 51.1444 56.5901 53.373C55.7329 55.6016 51.9615 57.6587 50.2472 57.8301C47.1615 58.3444 44.7615 58.173 38.7615 55.4301C29.1615 51.3159 22.9901 41.7159 22.4758 41.2016C21.9615 40.5159 18.7044 36.0587 18.7044 31.2587C18.7044 26.6301 21.1044 24.4016 21.9615 23.373C22.8186 22.3444 23.8472 22.173 24.5329 22.173C25.0472 22.173 25.7329 22.173 26.2472 22.173C26.9329 22.173 27.6186 22.0016 28.4758 23.8873C29.1615 25.773 31.2186 30.4016 31.3901 30.9158C31.5615 31.4301 31.7329 31.9444 31.3901 32.6301C29.6758 36.2301 27.6186 36.0587 28.6472 37.773C32.4186 44.1159 36.0186 46.3444 41.6758 49.0873C42.5329 49.6016 43.0472 49.4301 43.7329 48.9159C44.2472 48.2301 46.1329 46.0016 46.6472 45.1444C47.3329 44.1159 48.0186 44.2873 48.8758 44.6301C49.7329 44.973 54.3615 47.2016 55.3901 47.7159Z" fill="white"/>
</g>
<defs>
<clipPath id="clip0_34_6012">
<rect width="76.8" height="76.8" fill="white" transform="translate(0.399902 0.799805)"/>
</clipPath>
</defs>
</svg>
