<svg width="29" height="22" viewBox="0 0 29 22" fill="none" xmlns="http://www.w3.org/2000/svg">
<path d="M23.8106 0.868379L21.9894 2.29119L14.2351 8.0536L6.4807 2.23428L4.65949 0.811466C4.23045 0.456538 3.7067 0.235283 3.15314 0.175112C2.59958 0.114942 2.04052 0.218499 1.54524 0.472956C1.04996 0.727412 0.640213 1.12159 0.366766 1.60664C0.09332 2.0917 -0.0318101 2.64632 0.00687846 3.2018V19.6922C0.00687846 20.2054 0.210747 20.6976 0.573636 21.0605C0.936526 21.4234 1.42871 21.6273 1.94191 21.6273H6.4807V10.6431L14.2351 16.4624L21.9894 10.6431V21.6273H26.5282C27.0414 21.6273 27.5336 21.4234 27.8965 21.0605C28.2594 20.6976 28.4632 20.2054 28.4632 19.6922V3.2018C28.49 2.65111 28.3561 2.10453 28.078 1.62848C27.7999 1.15243 27.3895 0.767425 26.8967 0.52026C26.4038 0.273094 25.8498 0.174414 25.302 0.236215C24.7541 0.298016 24.236 0.517636 23.8106 0.868379Z" fill="#E0E6EC"/>
</svg>
