<svg width="29" height="33" viewBox="0 0 29 33" fill="none" xmlns="http://www.w3.org/2000/svg">
<path d="M14.2393 0.762939C9.0675 0.762939 4.8291 4.98867 4.8291 10.1462C4.8291 12.1446 5.46739 14.0019 6.54755 15.5283L13.0908 26.8401C14.0071 28.0373 14.6163 27.8098 15.3783 26.7768L22.5956 14.495C22.7411 14.2312 22.8556 13.9503 22.9552 13.6634C23.4132 12.5474 23.6487 11.3526 23.6485 10.1462C23.6488 4.98867 19.4117 0.762939 14.2393 0.762939ZM14.2393 5.15947C17.0246 5.15947 19.2393 7.36913 19.2393 10.1462C19.2393 12.9233 17.0246 15.132 14.2393 15.132C11.4543 15.132 9.23862 12.9236 9.23862 10.1462C9.23862 7.36913 11.4543 5.15979 14.2393 5.15979V5.15947Z" fill="#E0E6EC"/>
<path d="M20.2155 16.2324L20.2003 16.2723C20.2051 16.2603 20.2089 16.2479 20.2136 16.2359L20.2155 16.2324ZM18.6135 23.9646L18.176 24.5055C18.7675 24.577 19.34 24.6608 19.8761 24.7623L18.1431 25.2757L20.4562 25.8909L22.1804 25.3472C23.2393 25.7024 24.7057 26.1366 25.1915 26.6304H21.7344L22.0779 27.6349H25.6653C25.6546 28.2011 24.6424 28.661 23.6758 29.0336L21.2242 28.5035L18.9143 29.3312L21.3814 29.8943C19.941 30.2865 17.5226 30.525 15.5204 30.6347L15.4363 29.4834H13.0305L12.9461 30.6347C10.9439 30.525 8.52579 30.2868 7.08505 29.8946L9.55249 29.3312L7.24257 28.5035L4.79062 29.0336C3.83793 28.7442 2.81218 28.2011 2.80142 27.6349H6.38919L6.73269 26.6304H3.27555C3.76139 26.1366 5.22775 25.7024 6.28671 25.3472L8.01085 25.8909L10.3239 25.2757L8.59094 24.7623C9.1506 24.6589 9.71349 24.5737 10.2787 24.5071L9.8476 23.9653C5.17113 24.4514 1.28446 25.4867 0.265345 27.1216C-1.36011 29.7273 4.63627 32.3484 14.0341 32.3892C14.1739 32.3962 14.3118 32.3911 14.4421 32.3892C23.8346 32.3462 29.8256 29.726 28.2014 27.1216C27.1817 25.486 23.2925 24.4505 18.6132 23.9646H18.6135Z" fill="#E0E6EC"/>
</svg>
