<svg width="29" height="29" viewBox="0 0 29 29" fill="none" xmlns="http://www.w3.org/2000/svg">
<path d="M18.9789 20.6156L21.4302 18.1644C21.7603 17.8383 22.1781 17.6151 22.6326 17.5219C23.0872 17.4287 23.559 17.4694 23.9909 17.6391L26.9783 18.8319C27.4147 19.0091 27.789 19.3114 28.0538 19.7009C28.3187 20.0904 28.4623 20.5496 28.4666 21.0205V26.4921C28.4641 26.8125 28.3967 27.129 28.2686 27.4227C28.1405 27.7164 27.9543 27.9811 27.7212 28.2009C27.4881 28.4207 27.2129 28.5911 26.9122 28.7017C26.6115 28.8124 26.2916 28.8611 25.9716 28.8448C5.03745 27.5426 0.813419 9.81484 0.0145734 3.03014C-0.0225095 2.69697 0.0113722 2.35972 0.113989 2.04057C0.216607 1.72143 0.385634 1.42763 0.609951 1.17851C0.834268 0.929383 1.10879 0.730575 1.41546 0.595165C1.72213 0.459754 2.05399 0.39081 2.38922 0.392867H7.67473C8.14639 0.394263 8.60684 0.536733 8.99687 0.801951C9.3869 1.06717 9.68866 1.44301 9.86335 1.88112L11.0561 4.86858C11.2315 5.29872 11.2763 5.77099 11.1848 6.22641C11.0933 6.68182 10.8697 7.10019 10.5418 7.42925L8.09057 9.8805C8.09057 9.8805 9.50223 19.4338 18.9789 20.6156Z" fill="#E0E6EC"/>
</svg>
